<svg fill="none" height="800" viewBox="0 0 360 800" width="360" xmlns="http://www.w3.org/2000/svg"
    xmlns:xlink="http://www.w3.org/1999/xlink">

    <clipPath id="c">
        <path d="m0 0h360v800h-360z" />
    </clipPath>
    <g clip-path="url(#c)">
        <path d="m0 0h360v800h-360z" fill="#e4e4e4" />
        <path
            d="m.00003052 638v-638.00006104h133.09096948c35.832 117.55906104 12.099 405.62606104-46.5355 445.74306104-66.08 45.211 0 192.257-86.55546948 192.257z"
            fill="#d9d9d9" />
        <path
            d="m-297-2h657v818.951c-121.059 220.489-417.7056 74.45-459.0172-286.347-46.5578-406.612-197.9828 0-197.9828-532.604z"
            fill="#0a0f22" />
        <g >
            <path
                d="m-451.335 186.863 737.591-346.372 332.137 707.275c-46.488 254.244-438.75 284.514-631.4548-5.303-217.1752-326.62-222.2682 104.377-438.2732-355.6z"
                fill="#0e142c" fill-opacity=".59" shape-rendering="crispEdges" />
        </g>
        <g >
            <path
                d="m-408.717 285.197 664.852-490.8 438.06 593.409c-4.567 250.199-382.874 365.986-617.6707 135.415-264.6123-259.85-200.3483 147.9-485.2413-238.024z"
                fill="#10162c" fill-opacity=".59" shape-rendering="crispEdges" />
        </g>
    </g>
</svg>