<svg width="30" height="38" viewBox="0 0 30 38" fill="none" xmlns="http://www.w3.org/2000/svg">
<path d="M1 8.875C1 6.66586 2.79086 4.875 5 4.875H20C24.9706 4.875 29 8.90444 29 13.875V27.625C29 32.5956 24.9706 36.625 20 36.625H5C2.79086 36.625 1 34.8341 1 32.625V8.875Z" stroke="url(#paint0_linear_268_86)" stroke-width="2"/>
<line x1="0.9375" y1="26.3123" x2="29.0625" y2="26.3123" stroke="url(#paint1_linear_268_86)" stroke-width="2"/>
<line x1="0.9375" y1="14.125" x2="29.0625" y2="14.125" stroke="url(#paint2_linear_268_86)" stroke-width="2"/>
<line x1="7.49805" y1="1" x2="19.6855" y2="1" stroke="url(#paint3_linear_268_86)" stroke-width="2"/>
<line x1="14.5918" y1="17.9375" x2="14.5918" y2="22.625" stroke="url(#paint4_linear_268_86)" stroke-width="2"/>
<line x1="16.874" y1="20.344" x2="12.1865" y2="20.344" stroke="url(#paint5_linear_268_86)" stroke-width="2"/>
<defs>
<linearGradient id="paint0_linear_268_86" x1="15" y1="3.875" x2="15" y2="37.625" gradientUnits="userSpaceOnUse">
<stop stop-color="#0E6BC0"/>
<stop offset="0.0001" stop-color="#0E6BC0"/>
<stop offset="1" stop-color="#37C4CD"/>
</linearGradient>
<linearGradient id="paint1_linear_268_86" x1="15" y1="27.3123" x2="15" y2="28.3123" gradientUnits="userSpaceOnUse">
<stop stop-color="#0E6BC0"/>
<stop offset="0.0001" stop-color="#0E6BC0"/>
<stop offset="1" stop-color="#37C4CD"/>
</linearGradient>
<linearGradient id="paint2_linear_268_86" x1="15" y1="15.125" x2="15" y2="16.125" gradientUnits="userSpaceOnUse">
<stop stop-color="#0E6BC0"/>
<stop offset="0.0001" stop-color="#0E6BC0"/>
<stop offset="1" stop-color="#37C4CD"/>
</linearGradient>
<linearGradient id="paint3_linear_268_86" x1="13.5918" y1="2" x2="13.5918" y2="3" gradientUnits="userSpaceOnUse">
<stop stop-color="#0E6BC0"/>
<stop offset="0.0001" stop-color="#0E6BC0"/>
<stop offset="1" stop-color="#37C4CD"/>
</linearGradient>
<linearGradient id="paint4_linear_268_86" x1="13.5918" y1="20.2813" x2="12.5918" y2="20.2813" gradientUnits="userSpaceOnUse">
<stop stop-color="#0E6BC0"/>
<stop offset="0.0001" stop-color="#0E6BC0"/>
<stop offset="1" stop-color="#37C4CD"/>
</linearGradient>
<linearGradient id="paint5_linear_268_86" x1="14.5303" y1="19.344" x2="14.5303" y2="18.344" gradientUnits="userSpaceOnUse">
<stop stop-color="#0E6BC0"/>
<stop offset="0.0001" stop-color="#0E6BC0"/>
<stop offset="1" stop-color="#37C4CD"/>
</linearGradient>
</defs>
</svg>
