<svg width="39" height="38" viewBox="0 0 39 38" fill="none" xmlns="http://www.w3.org/2000/svg">
<path d="M3.875 37.75C3.875 37.75 0.75 37.75 0.75 34.625C0.75 31.5 3.875 22.125 19.5 22.125C35.125 22.125 38.25 31.5 38.25 34.625C38.25 37.75 35.125 37.75 35.125 37.75H3.875ZM19.5 19C21.9864 19 24.371 18.0123 26.1291 16.2541C27.8873 14.496 28.875 12.1114 28.875 9.625C28.875 7.1386 27.8873 4.75403 26.1291 2.99587C24.371 1.23772 21.9864 0.25 19.5 0.25C17.0136 0.25 14.629 1.23772 12.8709 2.99587C11.1127 4.75403 10.125 7.1386 10.125 9.625C10.125 12.1114 11.1127 14.496 12.8709 16.2541C14.629 18.0123 17.0136 19 19.5 19Z" fill="url(#paint0_linear_67_2484)"/>
<defs>
<linearGradient id="paint0_linear_67_2484" x1="19.5" y1="0.25" x2="19.5" y2="37.75" gradientUnits="userSpaceOnUse">
<stop stop-color="#35BECC"/>
<stop offset="1" stop-color="#0F6CC0"/>
</linearGradient>
</defs>
</svg>
